Coordinates
version=1
nRows=24
nColumns=24
inDegrees=yes

Units are S.I. units (second, meters, Newtons, ...)
Angles are in degrees.

endheader
time	pelvis_tilt	pelvis_list	pelvis_rotation	pelvis_tx	pelvis_ty	pelvis_tz	hip_flexion_r	hip_adduction_r	hip_rotation_r	knee_angle_r	ankle_angle_r	subtalar_angle_r	mtp_angle_r	hip_flexion_l	hip_adduction_l	hip_rotation_l	knee_angle_l	ankle_angle_l	subtalar_angle_l	mtp_angle_l	lumbar_extension	lumbar_bending	lumbar_rotation
      3.42500000	     -9.83882306	     -9.37599195	      7.16625753	     -2.71226872	     -0.02354947	      0.43135817	     23.32804695	     10.28833866	     -4.28553004	    -16.76836151	     -6.47965856	     -8.03662812	      2.51152670	     17.84467074	     -8.40673983	      7.62120018	    -60.16778486	    -25.99651586	     -0.98991784	     27.67520138	      7.17925342	      8.75016670	     -4.21787829
      3.43000000	     -9.72561985	     -9.25864205	      7.29036838	     -2.70668084	     -0.02281267	      0.43179176	     22.71510324	     10.26236509	     -4.29550027	    -16.58723365	     -6.15235693	     -8.02976166	      2.87982716	     18.65423967	     -8.13329918	      7.75866550	    -61.08634358	    -25.65443632	     -2.93995100	     27.00360108	      7.02529914	      8.57414298	     -4.06952183
      3.43500000	     -9.57292717	     -9.16541653	      7.38767696	     -2.70109700	     -0.02201573	      0.43228341	     22.04101416	     10.29983046	     -4.18064610	    -16.38106142	     -5.93505081	     -8.16426784	      2.91045683	     19.40781209	     -7.90794113	      7.86952896	    -61.91763378	    -25.22520822	     -4.64400153	     26.31055948	      6.83093329	      8.43076198	     -3.86378547
      3.44000000	     -9.44371937	     -8.98525287	      7.44369443	     -2.69550649	     -0.02119672	      0.43281888	     21.37547847	     10.26409662	     -3.97252999	    -16.18624404	     -5.68046962	     -8.31189857	      2.91680171	     20.13701310	     -7.59825511	      7.91863884	    -62.63182111	    -24.76376628	     -6.11288895	     25.62187096	      6.64965077	      8.19573592	     -3.63230619
      3.44500000	     -9.34274417	     -8.77038966	      7.45550831	     -2.68991585	     -0.02037855	      0.43339060	     20.73526594	     10.20302909	     -3.72579279	    -15.99945152	     -5.44616220	     -8.46834968	      2.88799264	     20.85800173	     -7.26271795	      7.92422169	    -63.23523852	    -24.22484657	     -7.31297109	     25.04900482	      6.49267696	      7.92711610	     -3.35242568
      3.45000000	     -9.26887803	     -8.53339537	      7.42768403	     -2.68431172	     -0.01956997	      0.43399971	     20.11522539	     10.12840115	     -3.43097226	    -15.81089797	     -5.22548421	     -8.63558442	      2.82879294	     21.57421947	     -6.91836442	      7.88554111	    -63.73159706	    -23.61363952	     -8.25534843	     24.59217131	      6.36503036	      7.63685319	     -3.03496659
      3.45500000	     -9.22005035	     -8.26352296	      7.37627437	     -2.67876911	     -0.01877126	      0.43462555	     19.52776224	     10.02121857	     -3.08827615	    -15.64290955	     -5.02336517	     -8.82274308	      2.73665513	     22.29072268	     -6.53913089	      7.83294487	    -64.12776884	    -22.92468799	     -8.93397500	     24.25859807	      6.24898383	      7.31303636	     -2.70939064
      3.46000000	     -9.20462504	     -7.93344493	      7.31523234	     -2.67325098	     -0.01795131	      0.43523697	     18.97516410	      9.84130990	     -2.76368046	    -15.48721492	     -4.82315427	     -8.99485484	      2.64753744	     22.99893990	     -6.08884645	      7.77436356	    -64.38870454	    -22.20148336	     -9.38519395	     24.17816098	      6.16397544	      6.92858978	     -2.37443374
      3.46500000	     -9.21021313	     -7.61021318	      7.29795902	     -2.66770928	     -0.01714346	      0.43580652	     18.42267452	      9.64616524	     -2.44467173	    -15.28698186	     -4.60729251	     -9.11729309	      2.58799329	     23.71719475	     -5.62692454	      7.75678780	    -64.54427973	    -21.48687137	     -9.70898147	     24.20933658	      6.11959743	      6.53290865	     -2.14367547
      3.47000000	     -9.23481929	     -7.19508718	      7.05324797	     -2.66224716	     -0.01632986	      0.43664104	     17.91942899	      9.42498470	     -1.94310330	    -15.17899274	     -4.41356438	     -9.28355604	      2.44736819	     24.37122471	     -5.17737316	      7.47923010	    -64.58958107	    -20.58849654	     -9.70641598	     24.24383402	      6.03985187	      6.08061247	     -1.60463047
      3.47500000	     -9.27604085	     -6.78746984	      6.90268379	     -2.65676511	     -0.01551897	      0.43734605	     17.41091175	      9.16684902	     -1.52775436	    -15.01367753	     -4.21512455	     -9.40072094	      2.33785771	     25.03843006	     -4.69112314	      7.30151518	    -64.53355077	    -19.69400314	     -9.57119151	     24.35634287	      6.00588892	      5.61982065	     -1.21536312
      3.48000000	     -9.32753707	     -6.36061061	      6.72401549	     -2.65132752	     -0.01472586	      0.43809161	     16.91671327	      8.88604560	     -1.11901554	    -14.84767923	     -3.99558079	     -9.46350244	      2.26956429	     25.68854077	     -4.20120620	      7.09481870	    -64.37709231	    -18.78257716	     -9.30291580	     24.54777528	      5.97561891	      5.14006037	     -0.81505891
      3.48500000	     -9.38525385	     -5.92434929	      6.53219604	     -2.64590723	     -0.01394253	      0.43883898	     16.42474759	      8.58665558	     -0.72071440	    -14.66631842	     -3.76948031	     -9.47433832	      2.23382881	     26.31816991	     -3.71191576	      6.87282223	    -64.11975498	    -17.87430468	     -8.93877312	     24.78347811	      5.95582459	      4.65340758	     -0.41543529
      3.49000000	     -9.44239934	     -5.48539482	      6.32855915	     -2.64050669	     -0.01318592	      0.43958160	     15.93128750	      8.27607153	     -0.34810911	    -14.47127363	     -3.53373096	     -9.44040063	      2.23581805	     26.92497738	     -3.23114608	      6.63582346	    -63.77192685	    -16.99291371	     -8.52551168	     25.04004251	      5.93857918	      4.16997029	     -0.01840901
      3.49500000	     -9.48895215	     -5.07141046	      6.10667479	     -2.63508774	     -0.01245936	      0.44031180	     15.41001758	      7.98539605	      0.04325514	    -14.23475034	     -3.28705138	     -9.34217530	      2.26886709	     27.50229501	     -2.79064439	      6.39659103	    -63.34748755	    -16.13665465	     -8.05010848	     25.29857903	      5.92241850	      3.72289950	      0.39175217
      3.50000000	     -9.52861384	     -4.64949912	      5.88176282	     -2.62970347	     -0.01177154	      0.44103611	     14.90177793	      7.67783853	      0.35405222	    -14.01968260	     -3.04641856	     -9.23881240	      2.33701518	     28.04978501	     -2.35256019	      6.13686530	    -62.83294146	    -15.34639598	     -7.64889975	     25.53509474	      5.89896101	      3.26730960	      0.78015687
      3.50500000	     -9.54757792	     -4.26223673	      5.64437159	     -2.62429810	     -0.01112683	      0.44172734	     14.35346175	      7.40039904	      0.69524965	    -13.75961365	     -2.79291119	     -9.08794330	      2.42947034	     28.56143392	     -1.95869829	      5.89221945	    -62.25407148	    -14.61405458	     -7.25094496	     25.74597210	      5.86706064	      2.86180887	      1.18555514
      3.51000000	     -9.55939678	     -3.88266665	      5.40217801	     -2.61888260	     -0.01053506	      0.44240724	     13.81032709	      7.12557400	      0.97153024	    -13.51072958	     -2.55566273	     -8.95388744	      2.52434567	     29.04478865	     -1.58820808	      5.62543352	    -61.59676208	    -13.94910261	     -6.94745373	     25.90876738	      5.83573511	      2.46689517	      1.55203648
      3.51500000	     -9.54894058	     -3.53762583	      5.15174504	     -2.61344390	     -0.01000138	      0.44305238	     13.23404817	      6.88218079	      1.27468065	    -13.23703650	     -2.31263578	     -8.80322279	      2.62078714	     29.49115896	     -1.26200149	      5.37176954	    -60.88213609	    -13.34120302	     -6.69444308	     26.02143862	      5.79306359	      2.11748705	      1.93142675
      3.52000000	     -9.51527185	     -3.22133016	      4.89046852	     -2.60799362	     -0.00952093	      0.44368070	     12.63645819	      6.66724487	      1.57961587	    -12.96231500	     -2.07594290	     -8.65999203	      2.69986727	     29.89839900	     -0.98196915	      5.11320122	    -60.10829568	    -12.78483893	     -6.50805085	     26.06653676	      5.73555411	      1.80623772	      2.30571427
      3.52500000	     -9.44761286	     -2.93916624	      4.61768230	     -2.60251993	     -0.00909295	      0.44428694	     11.99739073	      6.48769669	      1.92044857	    -12.67622912	     -1.83388569	     -8.52363622	      2.75000747	     30.25605574	     -0.75200722	      4.85726567	    -59.28514029	    -12.27665842	     -6.38663865	     26.02038335	      5.65224224	      1.53984679	      2.70062039
      3.53000000	     -9.36825029	     -2.67253405	      4.34791946	     -2.59701746	     -0.00872152	      0.44486520	     11.34488296	      6.32002009	      2.25632847	    -12.38762170	     -1.60754292	     -8.42930697	      2.74285713	     30.58447512	     -0.55068859	      4.58763936	    -58.40463286	    -11.81274279	     -6.34480123	     25.85955152	      5.56534600	      1.29339568	      3.02732936
      3.53500000	     -9.33650638	     -2.41496432	      4.08865498	     -2.59150419	     -0.00846204	      0.44541182	     10.75930028	      6.15070587	      2.53657425	    -12.12092113	     -1.40177490	     -8.37855248	      2.72030659	     30.94711377	     -0.35503805	      4.33647976	    -57.45886827	    -11.41297835	     -6.36411109	     25.68644467	      5.53712529	      1.05183417	      3.34328579
      3.54000000	     -9.27031231	     -2.18018772	      3.80679579	     -2.58598355	     -0.00824024	      0.44593412	     10.12887305	      6.00450879	      2.89359668	    -11.84222758	     -1.18639832	     -8.32984589	      2.66408136	     31.25578550	     -0.20298468	      4.07177832	    -56.46634422	    -11.05582357	     -6.44547934	     25.40360158	      5.47624207	      0.84951215	      3.68525239
